
        <svg xmlns="http://www.w3.org/2000/svg" xmlns:xlink="http://www.w3.org/1999/xlink" version="1.1" width="3204.081632653061" height="954.0816326530612" viewBox="0 0 3204.081632653061 954.0816326530612">
			
			<g transform="scale(10.204081632653061) translate(10, 10)">
				<defs id="SvgjsDefs1131"/><g id="SvgjsG1132" featureKey="symbolContainer" transform="matrix(1.47,0,0,1.47,0,0)" fill="#000"><circle cx="25" cy="25" r="25"/></g><g id="SvgjsG1133" featureKey="symbolFeature-0" transform="matrix(0.5874948974609766,0,0,0.5874948974609766,10.35416471236087,2.6130167171184375)" fill="#ffffff"><polygon xmlns="http://www.w3.org/2000/svg" points="45.576,30.947 32.59,30.148 32.59,25.353 45.576,25.353 "/><rect xmlns="http://www.w3.org/2000/svg" x="48.572" y="43.333" width="22.974" height="17.98"/><polygon xmlns="http://www.w3.org/2000/svg" points="32.59,36.94 45.576,37.739 45.576,61.313 32.59,61.313 "/><circle xmlns="http://www.w3.org/2000/svg" cx="67.426" cy="87.9" r="4.026"/><circle xmlns="http://www.w3.org/2000/svg" cx="25.074" cy="87.9" r="4.026"/><path xmlns="http://www.w3.org/2000/svg" d="M77,34.9l-55.5-3.4l-1.5-5c-0.2-0.8-1.4-3.4-7.7-3.7c-2.463-0.153-2.588,1.05-2.588,1.05C9.197,25.663,10.8,25.6,10.8,25.6  c4.4,0,6,1.1,6.2,1.5L29,67l-5.2,8.2c-0.2,0.3-1.2,1.7-0.4,3.2c0.6,1.1,1.8,1.4,3.5,1.4h43.7c0.7,0,1.2,0.8,1.2,1.4  c0,0.8,0.7,1.6,1.5,1.6c0.8,0,1.5-0.9,1.5-1.7c0-2.3-1.9-4.3-4.2-4.3H26.5l5.1-8.1l40.7-1.9c2.1,0,3.7-1.6,4.1-3.9L81.1,39  C81.1,36.7,79.2,34.9,77,34.9z M73.5,62.4c-0.1,0.3-0.3,1.4-1.3,1.4l-40.4,2l-9.4-31.4l54.5,3.2c0.6,0,1.1,0.5,1.2,1L73.5,62.4z"/></g><g id="SvgjsG1134" featureKey="nameFeature-0" transform="matrix(1.1449508151240568,0,0,1.1449508151240568,94.32058373867952,-3.2129613582594025)" fill="#000"><path d="M11.16 24.08 c0 -1.76 0.24 -3.6 1.04 -5.2 c1.64 -3.52 4.76 -5.12 8.52 -5.12 c1.56 0.08 3.12 1.08 3.12 2.76 c0 2.16 -1.72 4.08 -3.28 5.28 l-0.48 -0.64 c0 -0.04 0 -0.04 0.04 -0.08 s0.32 -0.28 0.36 -0.32 c1.08 -1.08 2.12 -2.4 2.12 -4.04 c0 -1.6 -1.4 -1.8 -2.68 -1.8 c-2.08 0.24 -3.16 2.72 -3.56 4.48 c-0.16 0.84 -0.2 1.64 -0.2 2.48 c0 0.72 0 1.24 0.08 1.96 l0.72 5.6 l0.12 1.68 c0 2.24 -0.28 4.2 -1.36 6.2 c-2.08 3.96 -6.32 6.4 -10.8 6.4 c-3.44 0 -5.2 -2 -5.2 -5.32 c0 -0.84 0.12 -1.68 0.32 -2.48 c0.04 -0.4 0.28 -1.16 0.76 -1.16 c0.24 0 0.4 0.16 0.48 0.4 l0 0.2 c0 0.56 -0.2 1.12 -0.28 1.68 c-0.08 0.48 -0.08 0.92 -0.08 1.4 c0 2.64 1.4 4.12 4 4.12 c4.96 0 6.84 -6.24 6.84 -10.24 c0 -0.48 0 -0.96 -0.04 -1.44 l-0.52 -5.24 c0 -0.08 -0.04 -1 -0.04 -1.32 l0 -0.24 z  M23.16 20 l1.2 -2.44 l1 -1.76 c0.04 -0.12 0.6 -1 0.8 -1.24 c1.64 -2.4 4.6 -5.6 7.84 -5.6 c1.4 0 2.36 0.92 2.36 2.32 c0 2.88 -2.44 5.76 -4.4 7.72 l-3.56 3.24 l-3.08 2.48 c0 0.04 -0.04 0.04 -0.04 0.08 c-0.28 0.88 -0.56 1.92 -0.76 2.84 c-0.04 0.16 -0.2 0.96 -0.24 1.12 c0 0.08 -0.04 0.4 -0.08 0.6 l1.16 -1.88 c1 -1.6 2.84 -4 5 -4 c2.08 0 2.92 2.92 3.12 4.52 l0.32 2.72 c0.04 0.4 0.12 0.76 0.24 1.12 c0.04 0.16 0.12 0.52 0.32 0.52 c0.36 0 0.8 -0.4 1 -0.56 c0.08 -0.08 0.36 -0.32 0.4 -0.36 l1.08 -1.04 l2.12 -2.6 l2.92 -3.92 c0.08 -0.08 0.2 -0.24 0.32 -0.24 c0.28 0 0.64 0.12 0.64 0.52 c0 0.28 -0.32 0.68 -0.48 0.88 c-0.08 0.16 -0.48 0.68 -0.52 0.72 l-3.72 4.68 l-1.8 2 c-0.08 0.08 -0.68 0.72 -0.88 0.88 c-0.96 0.88 -2.24 2 -3.6 2 c-2 0 -2.44 -2.24 -2.44 -3.8 l0 -2.32 c0 -0.36 -0.08 -2.84 -0.56 -2.84 c-0.32 0 -0.84 0.72 -1 0.96 l-2.16 3.28 l-1.04 1.4 c-0.08 0.08 -0.52 0.64 -0.64 0.8 c-0.8 0.88 -1.88 2 -3.2 2 l-0.16 0 c-0.68 -0.56 -0.84 -2.12 -0.84 -2.88 c0 -0.84 0.12 -1.68 0.24 -2.48 c0.04 -0.16 0.16 -0.84 0.2 -0.96 l0.56 -1.96 l1.16 -3.48 z M26.4 21.48 l0 0.04 l3.68 -2.8 l1.56 -1.36 l1.08 -1.12 c0.08 -0.04 0.56 -0.6 0.76 -0.84 c0.8 -1 1.76 -2.52 1.76 -3.88 c0 -0.28 -0.08 -0.56 -0.4 -0.56 c-0.52 0 -1.04 0.44 -1.44 0.72 c-1.68 1.36 -3.12 2.96 -4.32 4.76 c-0.24 0.32 -0.88 1.36 -0.96 1.48 l-0.92 1.76 c-0.04 0.04 -0.4 0.84 -0.52 1.12 c-0.08 0.2 -0.28 0.68 -0.28 0.68 z M26.36 21.56 c0.04 0 0.04 -0.04 0 -0.04 l0 0.04 z M39.8 31.8 c0 -1.8 1.04 -3.72 1.96 -5.2 c1.48 -2.32 4.48 -6.04 7.6 -6.04 c1.48 0 2.08 1.08 2.08 2.48 c0 1.8 -0.96 3.64 -1.8 5.2 c0.4 0 0.8 -0.12 1.16 -0.28 c1.84 -0.68 3.36 -2.16 4.44 -3.72 l0.04 -0.04 c0.48 0 0.64 0.08 0.8 0.6 c-0.08 0.16 -0.4 0.56 -0.4 0.6 c-0.04 0.04 -0.28 0.36 -0.36 0.44 c-1.56 1.84 -3.92 3.52 -6.4 3.52 l0 0.04 c-1.2 1.6 -4.16 5.28 -6.36 5.28 c-1.76 0 -2.76 -1.12 -2.76 -2.88 z M47.12 25.8 c0 0.76 0.12 1.76 0.84 2.24 c0.12 0.04 0.28 0.16 0.44 0.16 c0.92 -1.36 2 -3.52 2 -5.2 c0 -0.72 -0.28 -1.4 -1.08 -1.4 c-1.12 0 -1.88 1.84 -2.04 2.72 c-0.12 0.48 -0.16 0.96 -0.16 1.48 z M43.279999999999994 32 c0 0.32 0.08 0.64 0.44 0.64 c0.8 0 1.6 -0.72 2.08 -1.24 c0.12 -0.08 0.56 -0.52 0.64 -0.64 c0.12 -0.16 0.8 -0.96 0.96 -1.12 c0.04 -0.08 0.32 -0.44 0.36 -0.48 c0 -0.04 -0.52 -0.28 -0.6 -0.32 c-0.88 -0.56 -1.32 -1.48 -1.52 -2.52 l0 0.04 c-0.04 0 -0.32 0.48 -0.44 0.68 c-0.68 1.16 -1.92 3.56 -1.92 4.96 z M58.64 23.36 c0.36 -0.2 0.8 -0.44 1.2 -0.44 s0.76 0.36 0.76 0.76 c0 0.04 0 0.04 -0.04 0.08 c0 0.12 -0.08 0.36 -0.08 0.36 l-0.88 2.76 c0.48 -0.44 0.96 -1 1.44 -1.48 c0.96 -0.92 2.56 -2.28 4.04 -2.28 c1.32 0 1.8 1.2 1.8 2.36 c0 1.32 -0.6 2.6 -1.2 3.76 l0.04 0 l0.04 -0.04 c1.84 -0.8 3.68 -1.96 4.96 -3.52 c0.16 -0.16 0.48 -0.6 0.52 -0.64 l0 -0.04 l0.08 -0.28 l0.04 0 l0.76 0.48 l0 0.04 c-1.68 2.52 -4.4 4.12 -7.16 5.28 c-0.04 0 -0.08 0.04 -0.08 0.04 c-1.36 2.04 -3.64 4.24 -6.24 4.24 c-0.8 0 -1.4 -0.44 -1.36 -1.28 l-1.36 3.72 l-0.96 2.12 c-0.04 0.12 -0.44 0.88 -0.6 1.16 c-0.08 0.08 -0.4 0.64 -0.48 0.76 c-1.2 1.84 -2.92 3.64 -5.28 3.64 l-0.32 0 c-0.72 -0.04 -1.28 -0.48 -1.36 -1.24 l0 -0.24 c0 -1.24 0.68 -2.6 1.28 -3.68 c0.16 -0.24 0.64 -1.08 0.72 -1.2 l1.04 -1.52 l1.56 -1.92 l3.36 -3.76 l2.8 -7.44 l0 -0.04 s0.68 -0.4 0.96 -0.52 z M61.32 30.84 c0.04 0 0.4 -0.12 0.48 -0.12 c0.84 -1.36 1.44 -2.68 2 -4.08 c0.04 -0.08 0.24 -0.68 0.28 -0.8 c0.12 -0.44 0.28 -0.88 0.28 -1.32 l0 -0.16 c0 -0.04 -0.04 -0.08 -0.08 -0.08 c-0.68 0 -1.36 0.6 -1.8 1 c-0.12 0.08 -0.4 0.36 -0.44 0.4 l-1.16 1.2 l-2.2 2.56 l-1.24 3.56 l0 0.04 c0.76 -1.16 2.64 -1.8 3.88 -2.2 z M48.32 43.6 c0.96 0 2.8 -2.48 3.16 -3.24 l0.56 -1.16 l0.68 -1.72 l1.2 -3.48 l-2.4 2.56 c-0.12 0.12 -0.76 0.92 -0.96 1.16 c-0.08 0.16 -0.6 0.84 -0.68 1 c-0.8 1.12 -1.8 2.92 -1.8 4.36 l0 0.24 c0 0.12 0.08 0.28 0.24 0.28 z M61 31.880000000000003 l0 0.04 l-0.04 0 c-0.04 0 -0.64 0.24 -0.88 0.32 c-0.12 0.08 -0.64 0.28 -0.8 0.36 c-0.32 0.16 -1.12 0.56 -1.12 1 c0 0.24 0.32 0.32 0.52 0.32 c0.68 0 1.52 -0.96 1.84 -1.4 c0.04 -0.04 0.36 -0.4 0.44 -0.56 l0.04 -0.04 c0.04 0 0.04 -0.04 0 -0.04 z M57.44 33.12 l0 -0.04 c-0.04 0 -0.04 0.04 0 0.04 z M59.56 26.880000000000003 l0 0.04 c0.04 0 0.04 -0.04 0 -0.04 z M67.48 31.8 c0 -1.8 1.04 -3.72 1.96 -5.2 c1.48 -2.32 4.48 -6.04 7.6 -6.04 c1.48 0 2.08 1.08 2.08 2.48 c0 1.8 -0.96 3.64 -1.8 5.2 c0.4 0 0.8 -0.12 1.16 -0.28 c1.84 -0.68 3.36 -2.16 4.44 -3.72 l0.04 -0.04 c0.48 0 0.64 0.08 0.8 0.6 c-0.08 0.16 -0.4 0.56 -0.4 0.6 c-0.04 0.04 -0.28 0.36 -0.36 0.44 c-1.56 1.84 -3.92 3.52 -6.4 3.52 l0 0.04 c-1.2 1.6 -4.16 5.28 -6.36 5.28 c-1.76 0 -2.76 -1.12 -2.76 -2.88 z M74.80000000000001 25.8 c0 0.76 0.12 1.76 0.84 2.24 c0.12 0.04 0.28 0.16 0.44 0.16 c0.92 -1.36 2 -3.52 2 -5.2 c0 -0.72 -0.28 -1.4 -1.08 -1.4 c-1.12 0 -1.88 1.84 -2.04 2.72 c-0.12 0.48 -0.16 0.96 -0.16 1.48 z M70.96000000000001 32 c0 0.32 0.08 0.64 0.44 0.64 c0.8 0 1.6 -0.72 2.08 -1.24 c0.12 -0.08 0.56 -0.52 0.64 -0.64 c0.12 -0.16 0.8 -0.96 0.96 -1.12 c0.04 -0.08 0.32 -0.44 0.36 -0.48 c0 -0.04 -0.52 -0.28 -0.6 -0.32 c-0.88 -0.56 -1.32 -1.48 -1.52 -2.52 l0 0.04 c-0.04 0 -0.32 0.48 -0.44 0.68 c-0.68 1.16 -1.92 3.56 -1.92 4.96 z M87.72 14.64 l0 -0.04 c2.08 0 3.12 1.32 3.12 3.36 c0 1.08 -0.32 2.12 -0.72 3.12 l-1.24 2.92 l0 0.04 l1.8 -3 c1.32 -1.96 3.56 -4.8 6.08 -4.8 c2.2 0 3.48 1.56 3.48 3.68 c0 1.12 -0.32 2.2 -0.72 3.2 l-0.8 2.12 l0 0.04 l1.04 -1.56 l2.6 -3.52 l1.6 -1.92 c0.12 -0.12 0.92 -0.96 1.2 -1.2 c1.04 -1.04 2.64 -2.44 4.28 -2.44 c2.44 0 3.96 1.6 3.96 4.04 c0 1.04 -0.28 2.12 -0.64 3.08 l-0.64 1.84 l-4.48 10.4 l-1 2.84 l-0.52 1.88 c-0.24 0.8 -0.32 1.64 -0.32 2.48 c0 1.28 0.36 2.36 1.84 2.36 c0.16 0.08 0.28 0.24 0.28 0.44 c0 0.24 -0.12 0.52 -0.36 0.6 c-3.2 0 -5.16 -1.28 -5.16 -4.68 c0 -2.68 1 -5.28 2 -7.76 l4.08 -9.16 c0.04 -0.12 0.36 -1.04 0.48 -1.32 c0.36 -1.16 0.64 -2.44 0.64 -3.64 c0 -0.36 0.04 -1.16 -0.48 -1.28 l-0.12 0 c-0.72 0 -1.8 0.92 -2.32 1.44 l-0.84 0.84 c-0.2 0.24 -1 1.08 -1.08 1.2 l-1.6 1.92 l-2.76 3.72 l-3.68 5.68 l-1.72 3.08 l-0.8 1.76 c-0.28 0.6 -0.52 1.32 -0.64 2.04 c-0.04 0.2 -1.16 0.52 -1.44 0.52 c-0.76 0 -1 -0.72 -1 -1.36 c0 -1.08 0.4 -2.32 0.8 -3.32 l2.76 -6.68 l1.44 -3.96 l0.52 -1.84 c0.2 -0.68 0.32 -1.48 0.32 -2.24 c0 -0.52 -0.04 -1.28 -0.76 -1.28 c-2 0 -3.76 2.16 -4.8 3.64 c-0.16 0.24 -0.68 1 -0.72 1.08 l-1 1.76 l-1.32 2.56 l-2.52 5.8 l-2.44 6.72 c0 0.16 -1.28 0.36 -1.48 0.36 c-0.6 0 -1.24 -0.24 -1.64 -0.76 c-0.04 -0.08 -0.24 -0.28 -0.24 -0.44 l0.28 -1.28 l0.92 -3.52 l1.52 -4.36 l4.84 -11.56 c0.32 -0.68 0.48 -1.48 0.48 -2.24 c0 -0.52 -0.16 -0.92 -0.36 -1.4 z M88.88000000000001 24.04 l0 0 c-0.04 0 -0.04 0 0 0 z M88.84 24.08 l0 0 z M88.84 24.119999999999997 l0 -0.04 c-0.04 0 -0.04 0.04 0 0.04 z M88.80000000000001 24.16 c0.04 0 0.04 -0.04 0 -0.04 l0 0.04 z M98.72 25.28 l0 0 c-0.04 0 -0.04 0 0 0 z M98.68 25.32 c0.04 0 0.04 -0.04 0 -0.04 l0 0.04 z M110.96000000000001 31.16 c0 -4.48 4.48 -9.6 9.08 -9.6 c1.16 0 2.4 0.48 2.4 1.84 c0 2.8 -4.28 4.44 -6.76 4.72 c-0.2 0.72 -0.36 1.48 -0.36 2.28 c0 1.12 0.36 2.6 1.76 2.6 c1.2 0 2.44 -0.92 3.32 -1.64 c0.16 -0.16 0.76 -0.68 0.8 -0.72 l1.52 -1.52 l2.12 -2.28 l2.4 -3.04 c0.04 -0.04 0.12 -0.12 0.2 -0.16 c0.24 0 0.72 0.08 0.72 0.44 l-0.12 0.36 l-1.56 2.04 l-2.28 2.68 l-2.08 2.12 c-0.08 0.12 -0.76 0.68 -0.96 0.88 c-1.68 1.4 -3.68 2.72 -5.96 2.72 c-2.56 0 -4.24 -1.08 -4.24 -3.72 z M115.52000000000001 26.759999999999998 l0 0.04 c0.16 -0.04 0.88 -0.2 1.04 -0.24 c0.16 -0.08 0.8 -0.24 0.92 -0.28 c0.16 -0.08 0.76 -0.32 0.92 -0.36 c0.84 -0.36 2.44 -1.28 2.44 -2.4 c0 -0.4 -0.24 -0.68 -0.68 -0.68 c-1.68 0 -3.64 1.4 -4.32 2.88 c-0.12 0.32 -0.32 0.72 -0.32 1.04 z M127.2 23.84 l0.92 -2.2 l1 -2.08 c0.08 -0.16 0.72 -1.32 0.92 -1.64 c0.16 -0.24 0.88 -1.4 1.04 -1.68 c1.76 -2.56 6 -7.32 9.52 -7.32 c1.24 0 2.04 0.8 2.04 2 c0 1.44 -1 3.16 -1.84 4.28 l-1.04 1.4 l-1.4 1.56 l-1.88 1.96 l-1.96 1.84 l-3.76 3.12 l-0.04 0.04 l-0.4 1.36 l-0.52 2.2 c-0.24 0.92 -0.36 1.96 -0.36 2.96 c0 1.04 0.16 2.6 1.56 2.6 c0.92 0 1.88 -0.72 2.56 -1.28 c0.2 -0.2 0.92 -0.8 1 -0.88 l1.44 -1.44 l2.48 -2.84 l2.8 -3.6 l0.2 -0.2 c0.04 -0.04 0.08 0 0.12 0 c0.32 0 0.64 0.16 0.64 0.52 c0 0.08 0 0.12 -0.04 0.16 l-2.92 3.88 l-2.64 3.04 l-1.84 1.8 c-0.08 0.12 -0.84 0.76 -1.04 0.96 c-1.44 1.16 -3.48 2.64 -5.48 2.64 c-2.4 0 -3.08 -2.28 -3.08 -4.32 c0 -1.92 0.4 -4.04 1 -5.88 z M136.64000000000001 12.920000000000002 c-0.92 1.08 -1.8 2.28 -2.44 3.56 l-1 1.92 c-0.16 0.32 -1.56 3.68 -1.56 3.88 l0 0.04 l2.8 -2.28 l2.2 -2 l1.44 -1.48 c0.12 -0.12 0.84 -1 1.04 -1.28 c0.08 -0.08 0.6 -0.8 0.8 -1.04 c0.48 -0.72 1.36 -2.24 1.36 -3.2 c0 -0.52 -0.28 -0.84 -0.76 -0.84 c-1.04 0 -2.52 1.28 -3.16 1.92 c-0.12 0.12 -0.6 0.68 -0.72 0.8 z M139.12 31.8 c0 -1.8 1.04 -3.72 1.96 -5.2 c1.48 -2.32 4.48 -6.04 7.6 -6.04 c1.48 0 2.08 1.08 2.08 2.48 c0 1.8 -0.96 3.64 -1.8 5.2 c0.4 0 0.8 -0.12 1.16 -0.28 c1.84 -0.68 3.36 -2.16 4.44 -3.72 l0.04 -0.04 c0.48 0 0.64 0.08 0.8 0.6 c-0.08 0.16 -0.4 0.56 -0.4 0.6 c-0.04 0.04 -0.28 0.36 -0.36 0.44 c-1.56 1.84 -3.92 3.52 -6.4 3.52 l0 0.04 c-1.2 1.6 -4.16 5.28 -6.36 5.28 c-1.76 0 -2.76 -1.12 -2.76 -2.88 z M146.44 25.8 c0 0.76 0.12 1.76 0.84 2.24 c0.12 0.04 0.28 0.16 0.44 0.16 c0.92 -1.36 2 -3.52 2 -5.2 c0 -0.72 -0.28 -1.4 -1.08 -1.4 c-1.12 0 -1.88 1.84 -2.04 2.72 c-0.12 0.48 -0.16 0.96 -0.16 1.48 z M142.6 32 c0 0.32 0.08 0.64 0.44 0.64 c0.8 0 1.6 -0.72 2.08 -1.24 c0.12 -0.08 0.56 -0.52 0.64 -0.64 c0.12 -0.16 0.8 -0.96 0.96 -1.12 c0.04 -0.08 0.32 -0.44 0.36 -0.48 c0 -0.04 -0.52 -0.28 -0.6 -0.32 c-0.88 -0.56 -1.32 -1.48 -1.52 -2.52 l0 0.04 c-0.04 0 -0.32 0.48 -0.44 0.68 c-0.68 1.16 -1.92 3.56 -1.92 4.96 z M155.8 22.24 l0 -0.04 c0.32 0 0.56 -0.12 0.84 -0.12 c1.24 0 1.68 1.16 1.68 2.24 c0 0.08 0.04 0.28 -0.04 0.4 l-1.96 3.8 l0 0.04 l2.16 -2.08 l1.88 -1.6 c0.12 -0.08 1.04 -0.76 1.32 -0.96 c1.2 -0.84 2.76 -1.76 4.28 -1.76 c0.84 0 1.32 0.48 1.32 1.28 c0 0.76 -0.28 1.6 -0.6 2.28 l-2.24 4.6 l-0.52 1.36 c-0.16 0.44 -0.36 1.08 -0.36 1.6 c0 0.16 0 0.32 0.2 0.32 c0.68 0 1.4 -0.56 1.88 -0.96 c0.52 -0.32 2.48 -2.08 2.8 -2.56 l1.92 -2.12 l2.84 -3.52 l0.2 -0.2 c0.04 -0.04 0.16 -0.04 0.2 -0.04 c0.2 0 0.44 0.12 0.56 0.28 c0.08 0.16 0.24 0.52 0.24 0.52 l0 0.04 l-0.36 -0.04 l-2.64 3.36 l-2.96 3.32 l-1.48 1.44 c-0.08 0.08 -0.8 0.68 -1.04 0.84 c-0.96 0.76 -2.08 1.44 -3.36 1.44 c-1.72 0 -2.84 -1.28 -2.84 -2.96 c0 -0.76 0.24 -1.56 0.56 -2.24 l1.24 -2.96 c0.12 -0.28 0.16 -0.48 0.16 -0.76 c-0.16 0 -0.4 0.16 -0.56 0.28 c-0.08 0.04 -0.36 0.28 -0.4 0.28 c-0.08 0.08 -0.4 0.32 -0.48 0.4 c-0.28 0.2 -1 0.84 -1.08 0.88 l-2.52 2.44 l-3.36 3.64 c-0.4 0.44 -0.84 0.84 -1.44 0.84 c-1.2 0 -2.12 -0.88 -2.12 -2.04 c0 -1.4 0.96 -3.2 1.76 -4.4 l3.84 -5.92 z M156.28 28.6 c0.04 0 0.04 -0.04 0 -0.04 l0 0.04 z"/></g><g id="SvgjsG1135" featureKey="sloganFeature-0" transform="matrix(0.5832003070687194,0,0,0.5832003070687194,93.29672698032662,54.68742346832895)" fill="#000"><path d="M5.06 20.32 c-1.66 0 -4.06 -0.76 -3.84 -1.6 l0.18 -0.7 c0.54 -1.94 1.14 0.98 4.44 0.98 c1.74 0 2.72 -0.84 2.72 -2.1 c0 -1.04 -0.76 -1.5 -2.04 -2.26 l-2.24 -1.36 c-2.04 -1.24 -2.84 -2.12 -2.84 -3.5 c0 -2.38 2.28 -4.1 4.82 -4.1 c1.54 0 3.42 0.64 3.22 1.32 l-0.24 0.74 c-0.56 1.8 -1.08 -0.76 -3.82 -0.76 c-1.54 0 -2.32 0.8 -2.32 1.88 c0 0.88 0.54 1.4 1.88 2.22 l2.34 1.4 c2.04 1.22 2.86 2.14 2.86 3.52 c0 2.44 -2.44 4.32 -5.12 4.32 z M30.1465 19.38 c0.16 0.02 0.04 0.62 -0.12 0.62 l-5.2 0 c-0.16 0 -0.28 -0.6 -0.12 -0.62 c1 -0.14 1.68 -0.5 1.68 -1.8 l0 -3.58 c-0.1 -0.34 -0.52 -0.34 -0.9 -0.34 l-5.62 0 c-0.38 0 -0.8 0 -0.9 0.34 l0 3.58 c0 1.4 0.8 1.68 1.66 1.8 c0.16 0.02 0.04 0.62 -0.12 0.62 l-5.18 0 c-0.16 0 -0.28 -0.6 -0.12 -0.62 c0.98 -0.14 1.68 -0.5 1.68 -1.8 l0 -9.16 c0 -1.3 -0.7 -1.66 -1.68 -1.8 c-0.16 -0.02 -0.04 -0.62 0.12 -0.62 l5.18 0 c0.16 0 0.28 0.6 0.12 0.62 c-0.86 0.12 -1.66 0.4 -1.66 1.8 l0 3.8 c0.1 0.34 0.52 0.34 0.9 0.34 l5.62 0 c0.38 0 0.8 0 0.9 -0.34 l0 -3.8 c0 -1.3 -0.68 -1.66 -1.68 -1.8 c-0.16 -0.02 -0.04 -0.62 0.12 -0.62 l5.2 0 c0.16 0 0.28 0.6 0.12 0.62 c-0.88 0.12 -1.68 0.4 -1.68 1.8 l0 9.16 c0 1.4 0.8 1.68 1.68 1.8 z M42.453 20.32 c-4.16 0 -7.18 -3.1 -7.18 -7.26 c0 -4.02 2.84 -7.38 7.22 -7.38 c4.18 0 7.18 3.1 7.18 7.24 c0 4.04 -2.82 7.4 -7.22 7.4 z M43.193 19.1 c1.84 0 4.42 -1.18 4.42 -5.14 c0 -4.14 -2.84 -7.06 -5.84 -7.06 c-1.86 0 -4.42 1.18 -4.42 5.12 c0 4.18 2.82 7.08 5.84 7.08 z M66.2995 10.24 c0 3.62 -3.34 5.04 -7.74 4.34 l0 3 c0 1.4 0.92 1.64 2.26 1.8 c0.14 0.02 0.04 0.62 -0.12 0.62 l-5.78 0 c-0.16 0 -0.28 -0.6 -0.12 -0.62 c0.98 -0.14 1.68 -0.5 1.68 -1.8 l0 -9.04 c0 -1.32 -0.7 -1.7 -1.68 -1.96 c-0.16 -0.04 -0.06 -0.64 0.12 -0.62 c0.8 0.1 1.68 0.12 2.28 0.12 c1.34 0 2.54 -0.12 3.58 -0.12 c2.98 0 5.52 1.12 5.52 4.28 z M60.3595 6.92 c-1.4 0 -1.8 0.46 -1.8 1.62 l0 5.16 c3.54 0.48 5.5 -0.24 5.5 -3.02 c0 -2.6 -1.7 -3.76 -3.7 -3.76 z M99.6925 6 c0.26 0 0.32 0.58 0.06 0.62 c-0.82 0.12 -1.42 0.42 -2.12 2.18 l-3.02 7.78 c-0.62 1.58 -0.96 2.62 -0.96 3.42 c0 0.12 -1.4 0.44 -1.46 0.3 l-3.14 -8.08 l-1.8 4.36 c-0.64 1.58 -0.94 2.66 -0.94 3.42 c0 0.12 -1.42 0.44 -1.48 0.3 l-4.5 -11.48 c-0.68 -1.78 -1.3 -2.06 -2.08 -2.18 c-0.26 -0.04 -0.2 -0.64 0.06 -0.64 l4.88 0 c0.26 0 0.32 0.6 0.06 0.64 c-0.82 0.18 -1.42 0.48 -0.78 2.16 l3.3 8.6 l2.12 -5.12 c0.44 -1.06 0.5 -1.72 -0.08 -3.22 c-0.7 -1.82 -1.22 -2.3 -1.74 -2.42 c-0.24 -0.06 -0.2 -0.64 0.06 -0.64 l3.56 0 c0.2 0 0.24 0.06 0.24 0.14 c0 0.24 -0.8 0.82 -0.08 2.66 l3.26 8.52 l3.3 -8.52 c0.66 -1.72 0.04 -1.98 -1 -2.16 c-0.22 -0.04 -0.16 -0.64 0.06 -0.64 l4.22 0 z M104.65899999999999 20 c-0.16 0 -0.28 -0.6 -0.12 -0.62 c0.98 -0.14 1.68 -0.5 1.68 -1.8 l0 -9.16 c0 -1.3 -0.7 -1.66 -1.68 -1.8 c-0.16 -0.02 -0.04 -0.62 0.12 -0.62 l5.18 0 c0.16 0 0.28 0.6 0.12 0.62 c-0.86 0.12 -1.66 0.4 -1.66 1.8 l0 9.16 c0 1.4 0.8 1.68 1.66 1.8 c0.16 0.02 0.04 0.62 -0.12 0.62 l-5.18 0 z M117.82549999999999 20 c-0.18 0 -0.3 -0.58 -0.14 -0.6 c1.36 -0.16 2.28 -0.46 2.28 -1.54 l0 -10.02 c0 -0.48 -0.16 -0.64 -0.64 -0.64 l-0.64 0 c-2.02 0 -2.92 0.34 -3.38 1.3 c-0.18 0.36 -0.78 0.3 -0.72 0 c0.16 -0.78 0.32 -1.32 0.44 -2.34 c0.04 -0.34 0.28 -0.32 0.62 -0.28 c0.76 0.08 1.76 0.12 5.46 0.12 s5.18 -0.04 5.94 -0.12 c0.36 -0.04 0.7 -0.06 0.58 0.28 c-0.28 0.92 -0.48 1.58 -0.6 2.34 c-0.06 0.34 -0.56 0.32 -0.62 0 c-0.2 -0.94 -1.02 -1.3 -2.8 -1.3 l-0.72 0 c-0.48 0 -0.76 0.16 -0.76 0.64 l0 10.02 c0 1.08 0.94 1.38 2.28 1.54 c0.16 0.02 0.04 0.6 -0.14 0.6 l-6.44 0 z M147.212 19.38 c0.16 0.02 0.04 0.62 -0.12 0.62 l-5.2 0 c-0.16 0 -0.28 -0.6 -0.12 -0.62 c1 -0.14 1.68 -0.5 1.68 -1.8 l0 -3.58 c-0.1 -0.34 -0.52 -0.34 -0.9 -0.34 l-5.62 0 c-0.38 0 -0.8 0 -0.9 0.34 l0 3.58 c0 1.4 0.8 1.68 1.66 1.8 c0.16 0.02 0.04 0.62 -0.12 0.62 l-5.18 0 c-0.16 0 -0.28 -0.6 -0.12 -0.62 c0.98 -0.14 1.68 -0.5 1.68 -1.8 l0 -9.16 c0 -1.3 -0.7 -1.66 -1.68 -1.8 c-0.16 -0.02 -0.04 -0.62 0.12 -0.62 l5.18 0 c0.16 0 0.28 0.6 0.12 0.62 c-0.86 0.12 -1.66 0.4 -1.66 1.8 l0 3.8 c0.1 0.34 0.52 0.34 0.9 0.34 l5.62 0 c0.38 0 0.8 0 0.9 -0.34 l0 -3.8 c0 -1.3 -0.68 -1.66 -1.68 -1.8 c-0.16 -0.02 -0.04 -0.62 0.12 -0.62 l5.2 0 c0.16 0 0.28 0.6 0.12 0.62 c-0.88 0.12 -1.68 0.4 -1.68 1.8 l0 9.16 c0 1.4 0.8 1.68 1.68 1.8 z M158.98499999999999 20.04 c-0.2 0.02 -0.28 -0.6 -0.12 -0.64 c1.18 -0.3 2.08 -0.48 2.08 -1.96 l0 -8.96 c0 -1.34 -0.82 -1.68 -1.7 -1.9 c-0.16 -0.04 -0.08 -0.64 0.12 -0.62 c1.46 0.12 3.6 0.12 5.08 0.12 c1.82 0 3.18 -0.08 4.76 -0.12 c0.46 0 0.46 0.32 0.36 0.76 l-0.5 1.9 c-0.06 0.26 -0.54 0.26 -0.62 0 c-0.28 -0.94 -0.92 -1.6 -3.46 -1.6 c-1.5 0 -1.96 0.36 -1.96 1.46 l0 3.32 c0 0.52 0.26 0.62 0.66 0.62 l0.38 0 c1.78 0 3.12 -0.12 4 -0.96 c0.18 -0.18 0.6 -0.14 0.44 0.24 l-1.18 2.52 c-0.14 0.34 -0.42 0.3 -0.64 0 c-0.48 -0.62 -1.52 -0.86 -2.78 -0.86 l-0.22 0 c-0.4 0 -0.66 0.1 -0.66 0.62 l0 3.46 c0 1.16 0.52 1.54 2.24 1.54 c3.24 0 4.28 -1.3 4.78 -2.14 c0.16 -0.26 0.64 -0.2 0.64 0.18 c0 1.1 -0.84 3 -2.06 3.02 c-0.96 -0.06 -2.24 -0.12 -3.96 -0.12 c-1.84 0 -3.84 -0.06 -5.68 0.12 z M190.1315 19.36 c0.28 0.04 0.2 0.64 -0.04 0.64 l-4.98 0 c-0.26 0 -0.3 -0.6 -0.06 -0.64 c0.76 -0.12 1.52 -0.42 0.78 -2.16 l-0.3 -0.7 c-0.18 -0.46 -0.62 -0.48 -1.26 -0.48 l-4.16 0 c-0.6 0 -1.04 0.02 -1.22 0.48 l-0.28 0.7 c-0.74 1.78 0.02 2.02 1.02 2.16 c0.24 0.04 0.2 0.64 -0.06 0.64 l-4.22 0 c-0.26 0 -0.32 -0.6 -0.06 -0.64 c0.84 -0.12 1.32 -0.44 2.06 -2.16 l3.38 -7.7 c0.78 -1.76 1.02 -2.64 1.02 -3.4 c0 -0.12 1.42 -0.44 1.48 -0.3 l4.88 11.38 c0.74 1.74 1.22 2.06 2.02 2.18 z M184.2715 15 c0.3 0 0.64 -0.04 0.52 -0.3 l-2.56 -6.08 l-2.56 6.08 c-0.12 0.26 0.2 0.3 0.5 0.3 l4.1 0 z M199.018 20.32 c-1.66 0 -4.06 -0.76 -3.84 -1.6 l0.18 -0.7 c0.54 -1.94 1.14 0.98 4.44 0.98 c1.74 0 2.72 -0.84 2.72 -2.1 c0 -1.04 -0.76 -1.5 -2.04 -2.26 l-2.24 -1.36 c-2.04 -1.24 -2.84 -2.12 -2.84 -3.5 c0 -2.38 2.28 -4.1 4.82 -4.1 c1.54 0 3.42 0.64 3.22 1.32 l-0.24 0.74 c-0.56 1.8 -1.08 -0.76 -3.82 -0.76 c-1.54 0 -2.32 0.8 -2.32 1.88 c0 0.88 0.54 1.4 1.88 2.22 l2.34 1.4 c2.04 1.22 2.86 2.14 2.86 3.52 c0 2.44 -2.44 4.32 -5.12 4.32 z M208.9845 20.04 c-0.2 0.02 -0.28 -0.6 -0.12 -0.64 c1.18 -0.3 2.08 -0.48 2.08 -1.96 l0 -8.96 c0 -1.34 -0.82 -1.68 -1.7 -1.9 c-0.16 -0.04 -0.08 -0.64 0.12 -0.62 c1.46 0.12 3.6 0.12 5.08 0.12 c1.82 0 3.18 -0.08 4.76 -0.12 c0.46 0 0.46 0.32 0.36 0.76 l-0.5 1.9 c-0.06 0.26 -0.54 0.26 -0.62 0 c-0.28 -0.94 -0.92 -1.6 -3.46 -1.6 c-1.5 0 -1.96 0.36 -1.96 1.46 l0 3.32 c0 0.52 0.26 0.62 0.66 0.62 l0.38 0 c1.78 0 3.12 -0.12 4 -0.96 c0.18 -0.18 0.6 -0.14 0.44 0.24 l-1.18 2.52 c-0.14 0.34 -0.42 0.3 -0.64 0 c-0.48 -0.62 -1.52 -0.86 -2.78 -0.86 l-0.22 0 c-0.4 0 -0.66 0.1 -0.66 0.62 l0 3.46 c0 1.16 0.52 1.54 2.24 1.54 c3.24 0 4.28 -1.3 4.78 -2.14 c0.16 -0.26 0.64 -0.2 0.64 0.18 c0 1.1 -0.84 3 -2.06 3.02 c-0.96 -0.06 -2.24 -0.12 -3.96 -0.12 c-1.84 0 -3.84 -0.06 -5.68 0.12 z"/></g>
			</g>
		</svg>
	